{"title":"I Frankenstein 2014 R6 HDCAM x264 AC3-SmY","uid":9593586,"size":1645972451,"categoryP":"video","categoryS":"movies","magnet":"?xt=urn:btih:ba51c0fbfc2818f4798f7c04372c8358cdd0c016&amp;dn=I+Frankenstein+2014+R6+HDCAM+x264+AC3-SmY&amp;tr=udp%3A%2F%2Ftracker.openbittorrent.com%3A80&amp;tr=udp%3A%2F%2Fopen.demonii.com%3A1337&amp;tr=udp%3A%2F%2Ftracker.coppersurfer.tk%3A6969&amp;tr=udp%3A%2F%2Fexodus.desync.com%3A6969","seeders":2,"leechers":2,"uploader":"xxxlavalxxx","files":-1,"time":1391964201,"description":" &lt;a href=&quot;\nhttp://www.imdb.com/title/tt1418377/&quot; rel=&quot;nofollow&quot; target=&quot;_NEW&quot;&gt;\nhttp://www.imdb.com/title/tt1418377/&lt;/a&gt;\n\n\nFrankenstein's creature finds himself caught in an all-out, centuries old war between two immortal clans.\n\nDirector: Stuart Beattie\nWriters: Stuart Beattie (screenplay), Kevin Grevioux (screen story)\nStars: Aaron Eckhart, Bill Nighy, Miranda Otto\nGenres: Action | Fantasy | Sci-Fi\nCountry: USA | Australia\nLanguage: English\n\n\nFormat                                   : Matroska\nFormat version                           : Version 4 / Version 2\nFile size                                : 1.53 GiB\nDuration                                 : 1h 21mn\nOverall bit rate                         : 2 693 Kbps\nEncoded date                             : UTC 2010-02-22 21:41:31\nWriting application                      : mkvmerge v5.9.0 ('On The Loose') built on Dec  9 2012 15:37:01\nWriting library                          : libebml v1.3.0 + libmatroska v1.4.0\n\n\nVideo\nID                                       : 1\nFormat                                   : AVC\nFormat/Info                              : Advanced Video Codec\nFormat profile                           : &lt;a class=&quot;__cf_email__&quot; href=&quot;/cdn-cgi/l/email-protection&quot; data-cfemail=&quot;4d05242a250d017e637c&quot;&gt;[email&amp;#160;protected]&lt;/a&gt;&lt;script cf-hash='f9e31' type=&quot;text/javascript&quot;&gt;\n/* &lt;![CDATA[ */!function(){try{var t=&quot;currentScript&quot;in document?document.currentScript:function(){for(var t=document.getElementsByTagName(&quot;script&quot;),e=t.length;e--;)if(t[e].getAttribute(&quot;cf-hash&quot;))return t[e]}();if(t&amp;&amp;t.previousSibling){var e,r,n,i,c=t.previousSibling,a=c.getAttribute(&quot;data-cfemail&quot;);if(a){for(e=&quot;&quot;,r=parseInt(a.substr(0,2),16),n=2;a.length-n;n+=2)i=parseInt(a.substr(n,2),16)^r,e+=String.fromCharCode(i);e=document.createTextNode(e),c.parentNode.replaceChild(e,c)}}}catch(u){}}();/* ]]&gt; */&lt;/script&gt;\nFormat settings, CABAC                   : Yes\nFormat settings, ReFrames                : 4 frames\nMuxing mode                              : Header stripping\nCodec ID                                 : V_MPEG4/ISO/AVC\nDuration                                 : 1h 21mn\nBit rate                                 : 2 500 Kbps\nWidth                                    : 720 pixels\nHeight                                   : 320 pixels\nDisplay aspect ratio                     : 2.25:1\nFrame rate mode                          : Constant\nFrame rate                               : 29.970 fps\nColor space                              : YUV\nChroma subsampling                       : 4:2:0\nBit depth                                : 8 bits\nScan type                                : Progressive\nBits/(Pixel*Frame)                       : 0.362\nStream size                              : 1.39 GiB (91%)\nWriting library                          : x264 core 116 r2074 2641b9e\nEncoding settings                        : cabac=1 / ref=3 / deblock=1:-2:-2 / analyse=0x3:0x113 / me=hex / subme=7 / psy=1 / psy_rd=1.00:0.00 / mixed_ref=1 / me_range=16 / chroma_me=1 / trellis=1 / 8x8dct=1 / cqm=0 / deadzone=21,11 / fast_pskip=1 / chroma_qp_offset=-2 / threads=12 / sliced_threads=0 / nr=0 / decimate=0 / interlaced=0 / bluray_compat=0 / constrained_intra=0 / bframes=3 / b_pyramid=2 / b_adapt=1 / b_bias=0 / direct=1 / weightb=1 / open_gop=0 / weightp=2 / keyint=250 / keyint_min=25 / scenecut=40 / intra_refresh=0 / rc_lookahead=40 / rc=abr / mbtree=1 / bitrate=2500 / ratetol=1.0 / qcomp=0.60 / qpmin=0 / qpmax=69 / qpstep=4 / ip_ratio=1.40 / aq=1:1.00\nLanguage                                 : English\nDefault                                  : Yes\nForced                                   : No\n\n\nAudio\nID                                       : 2\nFormat                                   : AC-3\nFormat/Info                              : Audio Coding 3\nMode extension                           : CM (complete main)\nFormat settings, Endianness              : Big\nMuxing mode                              : Header stripping\nCodec ID                                 : A_AC3\nDuration                                 : 1h 21mn\nBit rate mode                            : Constant\nBit rate                                 : 192 Kbps\nChannel(s)                               : 2 channels\nChannel positions                        : Front: L R\nSampling rate                            : 48.0 KHz\nBit depth                                : 16 bits\nCompression mode                         : Lossy\nStream size                              : 112 MiB (7%)\nDefault                                  : Yes\nForced                                   : No\n\n\nscreens\n &lt;a href=&quot;\nhttp://i.imgur.com/lkHWwHm.jpg&quot; rel=&quot;nofollow&quot; target=&quot;_NEW&quot;&gt;\nhttp://i.imgur.com/lkHWwHm.jpg&lt;/a&gt;\n","torrent":{"xt":"urn:btih:ba51c0fbfc2818f4798f7c04372c8358cdd0c016","amp;dn":"I+Frankenstein+2014+R6+HDCAM+x264+AC3-SmY","amp;tr":["udp%3A%2F%2Ftracker.openbittorrent.com%3A80","udp%3A%2F%2Fopen.demonii.com%3A1337","udp%3A%2F%2Ftracker.coppersurfer.tk%3A6969","udp%3A%2F%2Fexodus.desync.com%3A6969"],"infoHash":"ba51c0fbfc2818f4798f7c04372c8358cdd0c016","infoHashBuffer":{"type":"Buffer","data":[186,81,192,251,252,40,24,244,121,143,124,4,55,44,131,88,205,208,192,22]},"announce":[],"urlList":[]}}